<?xml version="1.0" encoding="utf-8"?>
<!-- Generator: Adobe Illustrator 24.3.0, SVG Export Plug-In . SVG Version: 6.00 Build 0)  -->
<svg version="1.1" id="Layer_1" xmlns="http://www.w3.org/2000/svg" xmlns:xlink="http://www.w3.org/1999/xlink" x="0px" y="0px"
	 viewBox="0 0 111.2 130.7" style="enable-background:new 0 0 111.2 130.7;" xml:space="preserve">
<style type="text/css">
	.st0{fill:#ED7A24;}
	.st1{fill:none;stroke:#000000;stroke-width:4.82;stroke-linecap:round;stroke-linejoin:round;}
</style>
<path class="st0" d="M54,0C13.6,1.6-15.4,59.5,8.9,64.7c25.5,5.4,33,11.6,25.8,23.5c-10,16.6-10,31.8-0.1,37.5
	c14.8,8.5,40.3,6.3,51-7.9c5.2-6.9,2.2-19.6-5.5-33.5c-3.7-6.7-0.6-14.3,24.6-26.3C125,48.3,94.5-1.5,54,0z M87,19.9
	c0.8,1.4-2.4,2.6-4.2,0.3C81,17.9,85.3,16.8,87,19.9z M71.7,12.5c2.1,1.1,0.9,5.3-2.6,3.8C66.3,15,68.5,10.8,71.7,12.5z M59.6,21.5
	c8.8,0,9.9,14.2-1.2,14.2C49.8,35.7,49.1,21.5,59.6,21.5z M49.1,8.7c2.5,2.3-1,5.7-5,4.3S46.1,5.9,49.1,8.7z M31.6,15.3
	c4.6,0.9,1.5,9.8-7,9.8C16.1,25.1,21.3,13.3,31.6,15.3z M95.9,56.5C78.8,65.3,77.9,70.2,74,70c-3.6-0.2-6.7-2.8-10-8.4
	c-0.2-0.3-0.5-0.4-0.8-0.4c-0.4,0.1-0.7,0.5-0.6,0.9c1,7.4,18.4,26.9,20.2,41.7c2.6,21.2-34.2,26.9-46.2,15.1
	c-12-11.8,14.7-42.8,10.5-56.4C47,62.2,46.7,62,46.5,62c-0.4-0.1-0.8,0.2-0.9,0.6c-1.2,5.1-3.9,9-7.9,6.2
	c-8.9-6.3-18.6-6.3-25.6-10.5c-0.4-0.3-0.7-0.6-1-1c-0.8-1.4-0.3-3.1,1.1-3.9c7.5-4.2,25.6-10.9,42.4-11.5c20.9-0.7,41.8,1.2,49,6.8
	C106.8,51.2,103.2,52.8,95.9,56.5z"/>
<path class="st0" d="M66.7,92.6c-6.4,0-6,8.7-0.8,8.7C72.8,101.3,72.1,92.6,66.7,92.6z"/>
<path class="st1" d="M51,68.7c-3.4-2.6-13.3-1.2-13.3,2.6c0,6,14.6,3.3,14.6,10.6c0,3.2-7,6-14.6,1.8"/>
<path class="st1" d="M60.7,65.7c0,0-0.4,10.3,0,14.1"/>
<path class="st1" d="M73.8,65.7c0,0,0.4,10.3,0,14.1"/>
<path class="st1" d="M60.9,72.1c0,0,10.8,1.9,13,0.9"/>
<path class="st1" d="M36.1,93c0,0,7.6,6.5,10.4,7.4c2.8,0.9,12.6-11.8,12.6-11.8"/>
<path class="st1" d="M46.5,100.3c0.2,1.9,0.2,7.7,0.2,7.7"/>
<path class="st1" d="M49.2,57.5l0.5-16.4L41.1,52l-9.4-10.9v14.8"/>
<path class="st1" d="M31.7,55.9c0,12.3-4.3,21.5-12.1,20.7"/>
<path class="st1" d="M73.8,79.8c0,12.2,5,23.8,12.8,23"/>
<path class="st1" d="M59.3,42.7c0,0-2.6,14.3,10.2,14.3s10.1-15.9,10.1-15.9"/>
<path class="st1" d="M18.9,66.3c0,0-1.4-32.4,1.6-35.7s58.8-8.3,68.1,2.5c8.7,10.1,1.3,43.5-1,61.3"/>
<path class="st1" d="M21.1,85.9c0,10.7-1,21.1,4.6,21.6c5.6,0.4,12.9,0.5,12.9,0.5"/>
<path class="st1" d="M54.8,108c0,0,16-0.3,19.2,0"/>
</svg>
